<?xml version="1.0" encoding="utf-8"?>
<!-- Generator: Adobe Illustrator 23.0.6, SVG Export Plug-In . SVG Version: 6.00 Build 0)  -->
<svg version="1.1" id="Layer_1" xmlns="http://www.w3.org/2000/svg" xmlns:xlink="http://www.w3.org/1999/xlink" x="0px" y="0px"
	 viewBox="0 0 128 128" style="enable-background:new 0 0 128 128;" xml:space="preserve">
<style type="text/css">
	.st0{fill:#F7D6BF;}
	.st1{fill:#318FB5;}
	.st2{fill:#005086;}
	.st3{fill:#EABFA2;}
	.st4{fill:#172956;}
</style>
<title>PEOPLE</title>
<g>
	<g>
		<path class="st0" d="M80.9,47.3c0,2.8-0.7,5.6-2,8c-4.5,8.2-14.8,11.3-23,6.8c-2.9-1.6-5.2-3.9-6.8-6.8c-1.3-2.5-2-5.2-2-8
			c0-0.4,0-0.9,0.1-1.3c0.8-9.3,9-16.3,18.3-15.5c8.3,0.7,14.8,7.2,15.5,15.5C80.9,46.4,80.9,46.9,80.9,47.3z"/>
		<path class="st1" d="M89.8,88.2v9.4H38.2v-9.4c0-13.2,10.7-24,24-24c0,0,0,0,0,0h3.6C79.1,64.2,89.8,74.9,89.8,88.2
			C89.8,88.2,89.8,88.2,89.8,88.2z"/>
		<path class="st2" d="M46,70.4c-5,4.5-7.9,11-7.8,17.8v7.1H13.7v-6.3c0-11.9,9.6-21.5,21.5-21.5C39,67.4,42.7,68.5,46,70.4z"/>
		<path class="st3" d="M49.1,55.3c-1.1,7.7-8.2,13.1-15.9,12s-13.1-8.2-12-15.9c1.1-7.7,8.2-13.1,15.9-12c4.1,0.6,7.8,3,10,6.5
			c0,0.4-0.1,0.9-0.1,1.3C47.1,50.1,47.8,52.9,49.1,55.3z"/>
		<path class="st2" d="M114.3,88.9v6.3H89.8v-7.1c0-6.8-2.8-13.2-7.9-17.8c10.2-6,23.4-2.6,29.4,7.6
			C113.3,81.3,114.3,85.1,114.3,88.9z"/>
		<path class="st3" d="M107,53.4c0,7.8-6.3,14.1-14.1,14.1c-7.1,0-13-5.2-14-12.2c1.3-2.5,2-5.2,2-8c0-0.4,0-0.9-0.1-1.3
			c4.1-6.6,12.8-8.6,19.4-4.5C104.4,44.1,106.9,48.5,107,53.4L107,53.4z"/>
	</g>
	<path class="st4" d="M77.4,97.6c0,1-0.8,1.7-1.8,1.8H74c-1,0-1.8-0.8-1.8-1.8s0.8-1.8,1.8-1.8h1.6C76.6,95.8,77.4,96.6,77.4,97.6
		C77.4,97.6,77.4,97.6,77.4,97.6z M116.1,88.9v6.3c0,1-0.8,1.8-1.8,1.8H91.6v0.6c0,1-0.8,1.7-1.8,1.8h-6.7c-1,0-1.8-0.8-1.8-1.8
		s0.8-1.8,1.8-1.8h4.9v-7.6c0-12.3-10-22.2-22.2-22.2c0,0,0,0,0,0h-3.6c-12.3,0-22.2,10-22.2,22.2v7.7h26c1,0,1.8,0.8,1.8,1.8
		s-0.8,1.8-1.8,1.8H38.2c-1,0-1.7-0.8-1.8-1.8V97H13.7c-1,0-1.8-0.8-1.8-1.8v-6.3c0-9.8,6.1-18.5,15.3-21.8
		c-2.6-1.5-4.7-3.7-6.1-6.3c-0.5-0.9-0.1-1.9,0.7-2.4c0.9-0.5,1.9-0.1,2.4,0.7c3.2,6,10.7,8.3,16.7,5.1c3.3-1.8,5.6-4.9,6.3-8.6
		c-1.4-2.7-2.1-6-1.9-9.2c-3.9-5.6-11.6-7-17.2-3.2c-3.3,2.3-5.3,6.1-5.4,10.1c0,1-0.8,1.8-1.8,1.8s-1.8-0.8-1.8-1.8
		c0-8.8,7.2-15.8,15.9-15.8c4.1,0,7.9,1.6,10.9,4.4c3-9.9,13.4-15.5,23.3-12.5c6,1.8,10.7,6.5,12.5,12.5c6.3-6.1,16.3-5.9,22.4,0.4
		s5.9,16.3-0.4,22.4c-0.9,0.9-2,1.7-3.1,2.4C110,70.4,116.1,79.1,116.1,88.9z M82.7,46.5c0.1,3-0.5,6.3-1.9,9.2
		c1.2,6.7,7.6,11.1,14.3,9.9c6.7-1.2,11.1-7.6,9.9-14.3s-7.6-11.1-14.3-9.9C87.4,41.9,84.5,43.7,82.7,46.5L82.7,46.5z M48.8,47.3
		c0,8.4,6.9,15.2,15.3,15.1c9.3,0,14.6-7.4,15.1-14.2c0.6-9-7.1-16.8-16.5-16C54.7,33,48.8,39.7,48.8,47.3z M36.4,93.5v-5.3
		c0-6.6,2.7-13.1,6.7-17.3c-13.1-5.8-27.7,3.8-27.7,18v4.6L36.4,93.5z M54.8,63.5c-1.9-1.1-3.6-2.5-5-4.1c-1.3,3.2-3.7,5.9-6.8,7.7
		c1,0.4,1.9,0.8,2.8,1.2C48.5,66.1,51.5,64.5,54.8,63.5z M73.2,63.5c3.3,1,6.3,2.6,9,4.8c0.9-0.5,1.9-0.9,2.8-1.2
		c-3-1.7-5.4-4.4-6.8-7.7C76.8,61.1,75.1,62.5,73.2,63.5z M112.6,88.9c0-10.9-8.8-19.7-19.7-19.7c-2.7,0-5.5,0.6-8,1.7
		c3.8,4.1,6.7,10.5,6.7,17.3v5.3h21L112.6,88.9z"/>
</g>
</svg>
