<?xml version="1.0" encoding="UTF-8"?>
<svg version="1.1" xmlns="http://www.w3.org/2000/svg" width="960" height="268">
<path d="M0 0 C111.38020833 0 111.38020833 0 130 17.1875 C140.53189629 28.66079485 142.61187373 41.95297548 142.30078125 56.87890625 C141.79775567 68.30773014 137.24261844 75.25981464 129 83 C118.53797468 92 118.53797468 92 113 92 C113 92.66 113 93.32 113 94 C114.0209375 94.10054688 115.041875 94.20109375 116.09375 94.3046875 C125.17972025 95.92199021 134.49556765 101.50492363 140 109 C147.31318238 120.78343864 148.74226014 133.50454957 145.92138672 147.00952148 C142.51752361 161.45103757 135.10257836 172.41695184 122.75 180.6875 C86.63927825 202.49301148 38.55308072 192 0 192 C0 128.64 0 65.28 0 0 Z M44 35 C44 50.18 44 65.36 44 81 C48.74375 81.04125 53.4875 81.0825 58.375 81.125 C59.8501709 81.14320801 61.3253418 81.16141602 62.84521484 81.18017578 C74.75626033 81.23003971 84.86445372 80.86285533 93.8125 72.3125 C98.58569312 65.08452185 98.66465578 57.34794045 97 49 C95.22373219 43.02159005 92.35732263 39.99689488 87 36.91015625 C82.2685239 34.75696498 77.63518793 34.86869727 72.515625 34.90234375 C71.43063721 34.90385437 71.43063721 34.90385437 70.32373047 34.90539551 C67.63247076 34.91061113 64.94123372 34.92457238 62.25 34.9375 C56.2275 34.958125 50.205 34.97875 44 35 Z M44 111 C44 126.51 44 142.02 44 158 C50.043125 158.0825 56.08625 158.165 62.3125 158.25 C64.19622314 158.28641602 66.07994629 158.32283203 68.02075195 158.36035156 C78.4101208 158.47683083 87.02355768 157.85978566 96 152.0625 C101.32518397 146.57090403 102.47262328 140.42953519 103 133 C102.59659083 126.86303064 101.19838368 121.6403188 97 117 C86.53192996 109.52634243 72.52253616 110.74226306 60.3125 110.875 C52.2378125 110.936875 52.2378125 110.936875 44 111 Z " fill="#00A39D" transform="translate(0,73)"/>
<path d="M0 0 C2.0486578 1.58057637 4.02218701 3.18318821 5.93359375 4.92578125 C5.0317442 10.39283052 2.70195125 14.64040442 0.12109375 19.48828125 C-0.31783203 20.33841797 -0.75675781 21.18855469 -1.20898438 22.06445312 C-6.51031261 32.10783129 -6.51031261 32.10783129 -12.19140625 33.92578125 C-19.58831408 33.92578125 -25.63570789 30.16059413 -32.06640625 26.80078125 C-42.05541866 21.7744629 -52.64720622 20.23056983 -63.53125 23.71484375 C-67.76840447 25.65588658 -70.51285046 27.94223422 -73.06640625 31.92578125 C-74.01136893 34.7606693 -74.29260615 36.78136742 -74.37890625 39.73828125 C-74.41628906 40.56972656 -74.45367187 41.40117188 -74.4921875 42.2578125 C-73.89508152 45.99931142 -72.46218888 48.00543183 -70.06640625 50.92578125 C-67.84160293 52.45330225 -65.90939353 53.59737174 -63.50390625 54.73828125 C-62.8277124 55.07029541 -62.15151855 55.40230957 -61.45483398 55.74438477 C-54.72028517 58.89696102 -47.70153829 61.10327388 -40.62890625 63.36328125 C-21.60617251 69.45323642 -4.81251275 76.51934139 4.93359375 94.92578125 C6.1788864 97.88164072 7.1698443 100.8120335 7.93359375 103.92578125 C8.20623047 105.03373047 8.20623047 105.03373047 8.484375 106.1640625 C11.24538213 123.13825419 8.06654489 141.36474748 -1.8828125 155.5078125 C-12.70611488 169.6352933 -27.30756279 178.46333292 -45.06640625 180.92578125 C-71.40003493 184.17956993 -96.49814634 177.84283162 -118.30078125 162.67578125 C-122.69944719 159.0694216 -122.69944719 159.0694216 -124.06640625 156.92578125 C-124.12983286 151.82446939 -120.57318582 147.53642123 -117.87890625 143.42578125 C-117.40904297 142.67941406 -116.93917969 141.93304688 -116.45507812 141.1640625 C-113.13864913 136.05142299 -109.77956427 131.35904691 -103.890625 129.0859375 C-96.49898973 128.74811139 -91.5021852 132.31962775 -85.44580078 136.06420898 C-73.77505538 143.26566233 -62.68465303 145.51944157 -49.06640625 143.92578125 C-44.25774303 142.75947772 -41.19815071 140.99948754 -37.62890625 137.61328125 C-34.51973066 132.26549923 -33.51828957 127.0646881 -34.06640625 120.92578125 C-35.90688502 114.75476421 -38.93840137 111.53283519 -44.06640625 107.92578125 C-46.96274452 106.46291932 -49.93162274 105.39693495 -53.00390625 104.36328125 C-53.83510986 104.069375 -54.66631348 103.77546875 -55.52270508 103.47265625 C-60.72676472 101.65374234 -65.97648327 100.01579519 -71.25390625 98.42578125 C-88.4000406 93.19282829 -103.31146956 86.2801177 -112.24609375 69.7421875 C-119.01603587 55.48577655 -119.3074009 37.83117788 -114.32421875 22.96875 C-107.37520026 6.15730465 -95.07581072 -3.8193382 -78.65625 -10.8125 C-53.29987433 -19.7244797 -22.16212847 -14.99119773 0 0 Z " fill="#00A39D" transform="translate(286.06640625,86.07421875)"/>
<path d="M0 0 C15.50572756 2.81922319 28.49060088 8.49001645 37.84765625 21.5859375 C45.7969734 34.1765757 47.61278018 46.95063029 47.45410156 61.56420898 C47.45296954 63.05408701 47.45361384 64.54396725 47.45587158 66.03384399 C47.45700585 70.02683239 47.43370885 74.01932705 47.40557575 78.01220202 C47.38034402 82.20415832 47.37820313 86.3961295 47.37347412 90.58815002 C47.36110764 98.50322676 47.32837302 106.41807899 47.28807616 114.33305746 C47.24315983 123.35375806 47.22132179 132.37447014 47.20129442 141.39525497 C47.15963367 159.93032261 47.08636186 178.46508302 47 197 C31.49 197 15.98 197 0 197 C0 131.99 0 66.98 0 0 Z " fill="#00A39D" transform="translate(321,69)"/>
<path d="M0 0 C4.10589882 1.5464779 7.92251678 3.47566474 11.8125 5.5 C23.71280294 11.48771846 35.9450007 13.23277088 49.0703125 9.4375 C51.41606642 8.90566915 53.60286442 8.93364331 56 9 C55.7834375 9.81339844 55.566875 10.62679688 55.34375 11.46484375 C50.75414486 30.35446862 52.77728699 44.81686567 62.08203125 62.109375 C63 64 63 64 63 66 C62.13217896 66.05945801 62.13217896 66.05945801 61.24682617 66.12011719 C44.06815023 67.35754246 29.34001899 69.2353819 17.30859375 82.96484375 C15.14077647 85.60082814 13.03784697 88.26274383 11 91 C8.79104884 87.68657325 7.95617911 84.80966146 6.8125 81 C2.48283706 67.52433102 -3.65608847 60.28719166 -16.1328125 53.86328125 C-20.0668659 51.86296674 -24.02661518 49.9208756 -28 48 C-25.2455302 45.12522002 -22.38395552 42.74088047 -19.1875 40.375 C-13.95243586 36.21933053 -10.3843398 31.73708939 -7 26 C-6.60039062 25.32710937 -6.20078125 24.65421875 -5.7890625 23.9609375 C-2.00414322 16.59030523 -1.2274056 8.09901727 0 0 Z " fill="#F8AD3B" transform="translate(375,0)"/>
<path d="M0 0 C26 0 26 0 32 3 C35.64153474 7.02485418 36.73693058 10.4357254 36.5390625 15.7421875 C35.58667837 19.73115872 32.94337362 22.27562739 30 25 C30.74056641 25.59748047 30.74056641 25.59748047 31.49609375 26.20703125 C32.13675781 26.73683594 32.77742188 27.26664063 33.4375 27.8125 C34.07558594 28.33457031 34.71367187 28.85664063 35.37109375 29.39453125 C37.98381278 31.9696572 38.01668712 34.20358289 38.3125 37.8125 C38.26435264 42.17786034 36.76704249 44.60049066 34 48 C33.54625 48.5775 33.0925 49.155 32.625 49.75 C24.06572041 56.33406122 7.94920269 53 0 53 C0 35.51 0 18.02 0 0 Z M8 6 C8 11.61 8 17.22 8 23 C11.0628125 23.0928125 11.0628125 23.0928125 14.1875 23.1875 C15.91033203 23.23970703 15.91033203 23.23970703 17.66796875 23.29296875 C21.33289234 22.97073045 23.09664715 22.21232393 26 20 C28.35618542 17.11400612 28.35618542 17.11400612 27.8125 13.5 C26.9018572 9.5223583 26.9018572 9.5223583 24 7 C18.83608171 5.2786939 13.40708764 5.94646448 8 6 Z M8 29 C8 34.61 8 40.22 8 46 C10.536875 46.0825 13.07375 46.165 15.6875 46.25 C16.47729248 46.28641602 17.26708496 46.32283203 18.08081055 46.36035156 C21.83981771 46.41928656 23.65164198 46.21270602 26.94921875 44.19921875 C29.25523421 42.03543745 29.25523421 42.03543745 30.125 38.5625 C30.34482182 34.8597813 30.34482182 34.8597813 27.75 32.125 C21.85533989 27.57003537 15.16200725 28.93429351 8 29 Z " fill="#00A39C" transform="translate(436,139)"/>
<path d="M0 0 C4.95368341 4.12190821 7.38625171 8.55343825 9.09375 14.7421875 C9.94197663 24.8548115 9.7458461 33.26971408 3.40625 41.4921875 C-1.28496117 46.61625357 -7.53536689 49.38925905 -14.421875 49.9453125 C-22.92738794 50.09112129 -29.44512422 48.49338402 -36.30078125 43.33203125 C-42.07183006 37.61714836 -44.03853176 30.48987909 -44.21875 22.6171875 C-44.12597688 14.3418256 -42.28158712 7.94089016 -36.59375 1.8046875 C-26.47501231 -7.40401382 -11.09168518 -7.52650066 0 0 Z M-29.73046875 6.2265625 C-34.23314554 10.97999369 -35.9185687 15.76940553 -35.8984375 22.26171875 C-35.44413219 28.84914568 -33.8985569 33.37295767 -29.59375 38.4921875 C-24.75775361 42.54092866 -20.11288002 43.28662873 -13.90625 42.7421875 C-8.17013142 40.86311417 -3.89122751 38.38529884 -0.93359375 32.95703125 C1.79837201 26.56550206 2.0687429 20.19868608 0.03125 13.5546875 C-1.89792425 9.08007501 -4.69478766 6.16792659 -8.90625 3.7421875 C-16.29113204 0.8736796 -23.43829769 1.10659462 -29.73046875 6.2265625 Z " fill="#00A39D" transform="translate(612.90625,216.2578125)"/>
<path d="M0 0 C6 0 6 0 8.31640625 2.02734375 C9.42822266 3.46787109 9.42822266 3.46787109 10.5625 4.9375 C10.9759668 5.46311523 11.38943359 5.98873047 11.81542969 6.53027344 C13.22963669 8.33933618 14.61427576 10.16904473 16 12 C17.10687543 13.43451853 18.21499692 14.86807627 19.32421875 16.30078125 C24.61156409 23.15446985 29.80623756 30.07498341 35 37 C35.33 24.79 35.66 12.58 36 0 C38.64 0 41.28 0 44 0 C44 17.49 44 34.98 44 53 C37 53 37 53 35.20239258 51.78515625 C34.77079834 51.21667969 34.3392041 50.64820313 33.89453125 50.0625 C33.39171631 49.42223877 32.88890137 48.78197754 32.37084961 48.12231445 C31.85659424 47.42195068 31.34233887 46.72158691 30.8125 46 C30.26150635 45.28610107 29.7105127 44.57220215 29.14282227 43.83666992 C27.40565497 41.57416858 25.70145017 39.28944421 24 37 C22.8787462 35.51606348 21.75637212 34.03297269 20.6328125 32.55078125 C18.18364758 29.31020076 15.75682402 26.05414546 13.34936523 22.7824707 C11.61143903 20.4867227 9.79873629 18.24842036 8 16 C7.67 28.21 7.34 40.42 7 53 C4.69 53 2.38 53 0 53 C0 35.51 0 18.02 0 0 Z " fill="#00A39D" transform="translate(633,212)"/>
<path d="M0 0 C7 0 7 0 9.8515625 2.68359375 C10.79840362 3.91806146 11.72164996 5.17085982 12.625 6.4375 C13.37716797 7.43402588 13.37716797 7.43402588 14.14453125 8.45068359 C15.21767617 9.87525036 16.28153881 11.30684813 17.33691406 12.74462891 C19.60948346 15.8265426 21.94702603 18.85667777 24.28271484 21.89086914 C26.38156219 24.62139971 28.4635494 27.36452037 30.54296875 30.10986328 C32.33166947 32.43025888 34.16977293 34.71221616 36 37 C36.33 24.79 36.66 12.58 37 0 C39.31 0 41.62 0 44 0 C44 17.49 44 34.98 44 53 C38 53 38 53 36.234375 51.70703125 C35.74453125 51.08183594 35.2546875 50.45664062 34.75 49.8125 C34.16089844 49.07644531 33.57179688 48.34039062 32.96484375 47.58203125 C32.31644531 46.72996094 31.66804688 45.87789063 31 45 C30.25878906 44.05511719 29.51757812 43.11023438 28.75390625 42.13671875 C22.04643699 33.51896225 15.53977111 24.74504277 9 16 C8.67 28.21 8.34 40.42 8 53 C5.36 53 2.72 53 0 53 C0 35.51 0 18.02 0 0 Z " fill="#00A39D" transform="translate(457,212)"/>
<path d="M0 0 C4.269375 -0.0825 8.53875 -0.165 12.9375 -0.25 C14.26515381 -0.28641602 15.59280762 -0.32283203 16.96069336 -0.36035156 C25.76389732 -0.44224798 32.19288019 1.0210494 39.3125 6.25 C44.75397534 11.81802128 47.09662016 18.3476361 47.3125 26.0625 C47.19599826 33.3438587 45.76930441 39.7735239 40.94140625 45.3984375 C34.85301123 51.08641531 29.70386853 53.27251256 21.2890625 53.1953125 C19.60611084 53.18781982 19.60611084 53.18781982 17.88916016 53.18017578 C15.77840088 53.15286377 15.77840088 53.15286377 13.625 53.125 C9.12875 53.08375 4.6325 53.0425 0 53 C0 35.51 0 18.02 0 0 Z M8 7 C8 20.2 8 33.4 8 47 C22.77032535 47.82358209 22.77032535 47.82358209 34.375 41 C38.31541016 35.89684586 39.30053698 29.84086264 38.8046875 23.50390625 C37.8975563 18.61364444 36.28233842 14.81460952 33 11 C24.7389802 5.51158318 24.7389802 5.51158318 8 7 Z " fill="#00A39D" transform="translate(515,212)"/>
<path d="M0 0 C7 0 7 0 8.85766602 1.36669922 C9.31842529 2.00623535 9.77918457 2.64577148 10.25390625 3.3046875 C10.79184814 4.025354 11.32979004 4.74602051 11.8840332 5.48852539 C12.43792725 6.27606201 12.99182129 7.06359863 13.5625 7.875 C14.77539899 9.51740189 15.98896138 11.15931403 17.203125 12.80078125 C17.82251953 13.65365723 18.44191406 14.5065332 19.08007812 15.38525391 C22.23426584 19.68094953 25.52749285 23.86657453 28.8125 28.0625 C30.48294957 30.21483143 32.15326324 32.36726821 33.82348633 34.51977539 C34.92382181 35.96168097 34.92382181 35.96168097 36 37 C36.33 24.79 36.66 12.58 37 0 C39.31 0 41.62 0 44 0 C44 17.49 44 34.98 44 53 C38 53 38 53 36.0859375 51.59375 C35.52132812 50.9028125 34.95671875 50.211875 34.375 49.5 C33.69953125 48.68015625 33.0240625 47.8603125 32.328125 47.015625 C28.60879086 42.197964 24.93382418 37.35069501 21.3203125 32.453125 C16.94570664 26.58600655 12.46216041 20.80080854 8 15 C7.67 27.54 7.34 40.08 7 53 C4.69 53 2.38 53 0 53 C0 35.51 0 18.02 0 0 Z " fill="#00A39D" transform="translate(535,139)"/>
<path d="M0 0 C2.97 0 5.94 0 9 0 C9 7.59 9 15.18 9 23 C17.91 23 26.82 23 36 23 C36 15.41 36 7.82 36 0 C38.64 0 41.28 0 44 0 C44 17.49 44 34.98 44 53 C41.36 53 38.72 53 36 53 C36 45.08 36 37.16 36 29 C27.09 29 18.18 29 9 29 C9 36.92 9 44.84 9 53 C6.03 53 3.06 53 0 53 C0 35.51 0 18.02 0 0 Z " fill="#00A19B" transform="translate(916,139)"/>
<path d="M0 0 C24 0 24 0 32 4 C34.79965272 7.43183237 35.8302153 10.58559777 36 15 C35.11745728 19.84113241 33.75834743 23.763402 30 27.0625 C27 29 27 29 24 29 C25.54042704 31.16755741 27.08213857 33.33417603 28.625 35.5 C29.0792334 36.1384082 29.5334668 36.77681641 30.00146484 37.43457031 C32.93060805 41.53932769 35.91999929 45.58342451 39.0390625 49.546875 C40 51 40 51 40 53 C36.86345847 53.52674743 34.12480424 53.65877636 31 53 C28.09548009 50.67816326 26.18338553 47.82259005 24.125 44.75 C23.57070313 43.97269531 23.01640625 43.19539063 22.4453125 42.39453125 C21.41383421 40.9440149 20.39424871 39.48490843 19.39111328 38.01464844 C18.70251221 37.01739746 18.70251221 37.01739746 18 36 C17.59120605 35.27586914 17.18241211 34.55173828 16.76123047 33.80566406 C14.59328151 31.21580396 14.59328151 31.21580396 8 31 C8 38.26 8 45.52 8 53 C5.36 53 2.72 53 0 53 C0 35.51 0 18.02 0 0 Z M8 6 C8 12.27 8 18.54 8 25 C16.97292864 25.52192566 16.97292864 25.52192566 25 22 C27.45068846 18.32396731 27.70632248 15.27238966 27 11 C24.67423934 7.76054766 22.83567029 6.70230583 19 6 C17.08438746 5.93311409 15.16664408 5.91468281 13.25 5.9375 C10.65125 5.9684375 10.65125 5.9684375 8 6 Z " fill="#00A39D" transform="translate(796,139)"/>
<path d="M0 0 C2.64 0 5.28 0 8 0 C8 7.59 8 15.18 8 23 C13.50072799 20.41465174 13.50072799 20.41465174 17.1875 16.5625 C17.77144531 15.87285156 18.35539063 15.18320313 18.95703125 14.47265625 C20.05831657 13.13974305 21.15698983 11.80455107 22.23974609 10.45654297 C30.3231844 0.47425088 30.3231844 0.47425088 34.70703125 -0.765625 C37.1875 -0.75 37.1875 -0.75 41 0 C39.65324235 2.97977276 38.139133 5.13709317 35.8828125 7.49609375 C34.97208984 8.45805664 34.97208984 8.45805664 34.04296875 9.43945312 C33.41003906 10.09880859 32.77710938 10.75816406 32.125 11.4375 C28.24315763 15.50743164 24.42778651 19.5300975 21 24 C22.71672588 28.19873921 25.66576667 31.26558727 28.625 34.625 C29.70695388 35.87003051 30.78767691 37.11613168 31.8671875 38.36328125 C32.39795898 38.9763916 32.92873047 39.58950195 33.47558594 40.22119141 C43 51.33504164 43 51.33504164 43 53 C39.36638342 54.01291082 36.63043875 54.08534004 33 53 C28.80327827 49.61220379 25.62261236 45.06201186 22.37353516 40.79589844 C20.51082854 38.36040788 18.56050253 36.01285888 16.5625 33.6875 C15.98628906 32.99011719 15.41007813 32.29273438 14.81640625 31.57421875 C12.7506153 29.52198157 12.7506153 29.52198157 8 29 C8 36.92 8 44.84 8 53 C5.36 53 2.72 53 0 53 C0 35.51 0 18.02 0 0 Z " fill="#00A39D" transform="translate(593,139)"/>
<path d="M0 0 C1.23556641 0.01740234 1.23556641 0.01740234 2.49609375 0.03515625 C3.32238281 0.04417969 4.14867187 0.05320313 5 0.0625 C5.63808594 0.07410156 6.27617188 0.08570313 6.93359375 0.09765625 C7.71484375 2.05078125 8.49609375 4.00390625 9.27734375 5.95703125 C9.52236633 6.56945175 9.76738892 7.18187225 10.01983643 7.81285095 C11.37392311 11.19750857 12.72722883 14.58247502 14.07910156 17.96801758 C16.54086865 24.13103427 19.00672744 30.29188137 21.51171875 36.4375 C21.88361328 37.35370117 22.25550781 38.26990234 22.63867188 39.21386719 C23.32064207 40.89202375 24.00665911 42.56854307 24.69726562 44.24316406 C26.93359375 49.76184476 26.93359375 49.76184476 26.93359375 53.09765625 C24.29359375 53.09765625 21.65359375 53.09765625 18.93359375 53.09765625 C18.09595107 51.14116228 17.26360316 49.18240069 16.43359375 47.22265625 C15.96953125 46.13210937 15.50546875 45.0415625 15.02734375 43.91796875 C13.93359375 41.09765625 13.93359375 41.09765625 13.93359375 39.09765625 C6.01359375 39.09765625 -1.90640625 39.09765625 -10.06640625 39.09765625 C-10.56140625 41.57265625 -10.56140625 41.57265625 -11.06640625 44.09765625 C-11.70880081 45.72041198 -12.39603297 47.32620432 -13.12890625 48.91015625 C-13.49113281 49.70035156 -13.85335937 50.49054688 -14.2265625 51.3046875 C-14.50371094 51.89636719 -14.78085937 52.48804688 -15.06640625 53.09765625 C-17.70640625 53.09765625 -20.34640625 53.09765625 -23.06640625 53.09765625 C-22.45547573 49.6121746 -21.55152242 46.50915699 -20.22460938 43.23144531 C-19.65897278 41.82539032 -19.65897278 41.82539032 -19.08190918 40.39093018 C-18.67460571 39.39180603 -18.26730225 38.39268188 -17.84765625 37.36328125 C-17.42971802 36.32951355 -17.01177979 35.29574585 -16.58117676 34.23065186 C-15.69895163 32.05119428 -14.81458405 29.8726029 -13.92822266 27.69482422 C-12.566612 24.34816196 -11.21248265 20.9985454 -9.859375 17.6484375 C-9.00174178 15.53237382 -8.14368362 13.41648231 -7.28515625 11.30078125 C-6.87785278 10.29356018 -6.47054932 9.28633911 -6.05090332 8.24859619 C-5.67381226 7.32383484 -5.29672119 6.39907349 -4.90820312 5.44628906 C-4.57590698 4.62864075 -4.24361084 3.81099243 -3.90124512 2.96856689 C-2.63211528 0.12439108 -2.63211528 0.12439108 0 0 Z M1.93359375 10.09765625 C-0.38016101 15.21635393 -2.62622741 20.36234069 -4.81640625 25.53515625 C-5.244375 26.54449219 -5.67234375 27.55382812 -6.11328125 28.59375 C-7.18499052 30.96265331 -7.18499052 30.96265331 -7.06640625 33.09765625 C-1.12640625 33.09765625 4.81359375 33.09765625 10.93359375 33.09765625 C8.70509769 25.23927542 5.94396427 17.68902538 2.93359375 10.09765625 C2.60359375 10.09765625 2.27359375 10.09765625 1.93359375 10.09765625 Z " fill="#00A39D" transform="translate(882.06640625,138.90234375)"/>
<path d="M0 0 C2.97 0 5.94 0 9 0 C11.02781473 4.85169159 13.0541025 9.7040173 15.07910156 14.55688477 C15.76522657 16.20060582 16.4517369 17.8441661 17.13867188 19.48754883 C20.62547189 27.8298708 24.10070962 36.17697773 27.4921875 44.55859375 C28.22091064 46.35574829 28.22091064 46.35574829 28.96435547 48.18920898 C30 51 30 51 30 53 C27.36 53 24.72 53 22 53 C21.18501438 51.3970947 20.37310073 49.79262722 19.5625 48.1875 C19.11003906 47.29417969 18.65757812 46.40085938 18.19140625 45.48046875 C17 43 17 43 16 40 C8.41 40 0.82 40 -7 40 C-7.804375 41.959375 -8.60875 43.91875 -9.4375 45.9375 C-11.875 51.875 -11.875 51.875 -13 53 C-15.67058851 53.14115161 -18.32432238 53.04247107 -21 53 C-18.9404341 46.55021072 -16.58009422 40.27170599 -14.0234375 34.00390625 C-13.65272125 33.08915024 -13.282005 32.17439423 -12.90005493 31.23191833 C-12.12314223 29.31627698 -11.34491689 27.40116749 -10.56542969 25.48657227 C-9.36890601 22.54753124 -8.17629832 19.60692495 -6.984375 16.66601562 C-6.22678673 14.79938814 -5.46898204 12.93284848 -4.7109375 11.06640625 C-4.3536557 10.18626358 -3.9963739 9.30612091 -3.62826538 8.39930725 C-3.2976712 7.58763596 -2.96707703 6.77596466 -2.62646484 5.93969727 C-2.3357309 5.22515884 -2.04499695 4.51062042 -1.74545288 3.77442932 C-1.20856933 2.49646536 -0.619909 1.239818 0 0 Z M4 9 C-0.455 20.88 -0.455 20.88 -5 33 C1.27 33 7.54 33 14 33 C9.545 21.12 9.545 21.12 5 9 C4.67 9 4.34 9 4 9 Z " fill="#00A39D" transform="translate(498,139)"/>
<path d="M0 0 C2.97 0 5.94 0 9 0 C13.01699525 8.56075477 16.5822218 17.27498865 20.0625 26.0625 C20.58373693 27.37314531 21.10522032 28.68369263 21.62695312 29.99414062 C22.62887162 32.510945 23.62797021 35.02880465 24.62548828 37.54736328 C25.49505811 39.7316362 26.37263223 41.91275421 27.26123047 44.08935547 C27.62748535 44.9867041 27.99374023 45.88405273 28.37109375 46.80859375 C28.68876709 47.57872803 29.00644043 48.3488623 29.33374023 49.14233398 C30 51 30 51 30 53 C27.36 53 24.72 53 22 53 C21.37237545 51.77217138 20.74803935 50.54266164 20.125 49.3125 C19.77695312 48.62800781 19.42890625 47.94351563 19.0703125 47.23828125 C17.93967982 44.87385597 16.97335801 42.43339502 16 40 C8.41 39.67 0.82 39.34 -7 39 C-7.99 41.97 -8.98 44.94 -10 48 C-11.1875 51.0625 -11.1875 51.0625 -13 53 C-14.92700195 53.18920898 -14.92700195 53.18920898 -17.11328125 53.12109375 C-18.39589844 53.08113281 -19.67851563 53.04117188 -21 53 C-16.60945962 41.06832873 -11.92700847 29.27139746 -7.125 17.5 C-6.42948889 15.79044537 -5.73417537 14.08081034 -5.0390625 12.37109375 C-3.36164116 8.24646957 -1.68158577 4.12292801 0 0 Z M4 9 C2.65853506 12.43438215 1.32824095 15.87298417 0 19.3125 C-0.3815625 20.28896484 -0.763125 21.26542969 -1.15625 22.27148438 C-1.69765625 23.67817383 -1.69765625 23.67817383 -2.25 25.11328125 C-2.58515625 25.97735596 -2.9203125 26.84143066 -3.265625 27.73168945 C-4.15400692 30.07831974 -4.15400692 30.07831974 -4 33 C1.94 33 7.88 33 14 33 C13.071875 30.525 12.14375 28.05 11.1875 25.5 C9.125 20 7.0625 14.5 5 9 C4.67 9 4.34 9 4 9 Z " fill="#00A39D" transform="translate(759,139)"/>
<path d="M0 0 C2.64 0 5.28 0 8 0 C12.49049635 9.43099981 16.34336742 19.11234623 20.21313477 28.80981445 C21.32316917 31.58921438 22.4396957 34.36594916 23.55664062 37.14257812 C24.26341054 38.90869826 24.96980482 40.67496878 25.67578125 42.44140625 C26.01007645 43.27152725 26.34437164 44.10164825 26.688797 44.95692444 C29 50.77056926 29 50.77056926 29 53 C26.36 53 23.72 53 21 53 C20.37237545 51.77217138 19.74803935 50.54266164 19.125 49.3125 C18.77695312 48.62800781 18.42890625 47.94351563 18.0703125 47.23828125 C16.93967982 44.87385597 15.97335801 42.43339502 15 40 C7.41 39.67 -0.18 39.34 -8 39 C-8.99 42.3 -9.98 45.6 -11 49 C-11.66 50.32 -12.32 51.64 -13 53 C-15.64 53 -18.28 53 -21 53 C-20.27616172 48.05387551 -18.40001848 43.64854326 -16.54296875 39.04296875 C-16.19873367 38.18117508 -15.8544986 37.31938141 -15.49983215 36.43147278 C-14.77142696 34.61094868 -14.04088385 32.79127871 -13.30834961 30.97241211 C-12.19648131 28.20981536 -11.09285999 25.44403109 -9.99023438 22.67773438 C-9.27913915 20.90344804 -8.56756585 19.12935322 -7.85546875 17.35546875 C-7.52927048 16.53749313 -7.2030722 15.71951752 -6.86698914 14.87675476 C-4.80823296 9.78132096 -2.51661822 4.88618629 0 0 Z M3 10 C1.66128359 13.45627381 0.32994608 16.91534297 -1 20.375 C-1.57234375 21.85226563 -1.57234375 21.85226563 -2.15625 23.359375 C-2.5171875 24.30039063 -2.878125 25.24140625 -3.25 26.2109375 C-3.75273438 27.51490479 -3.75273438 27.51490479 -4.265625 28.84521484 C-5.10753032 30.93609786 -5.10753032 30.93609786 -5 33 C0.94 33 6.88 33 13 33 C12.071875 30.31875 11.14375 27.6375 10.1875 24.875 C9.90156982 24.04210449 9.61563965 23.20920898 9.32104492 22.35107422 C7.8208454 18.06084141 6.14052492 14.02392973 4 10 C3.67 10 3.34 10 3 10 Z " fill="#00A39D" transform="translate(812,212)"/>
<path d="M0 0 C11.22 0 22.44 0 34 0 C34 2.31 34 4.62 34 7 C25.42 7 16.84 7 8 7 C8 12.28 8 17.56 8 23 C14.93 23 21.86 23 29 23 C29 25.31 29 27.62 29 30 C22.07 30 15.14 30 8 30 C8 35.61 8 41.22 8 47 C16.58 47 25.16 47 34 47 C34 48.98 34 50.96 34 53 C22.78 53 11.56 53 0 53 C0 35.51 0 18.02 0 0 Z " fill="#00A39D" transform="translate(690,212)"/>
<path d="M0 0 C-0.66 1.98 -1.32 3.96 -2 6 C-7.53956835 5.24460432 -7.53956835 5.24460432 -10 3.9375 C-12.79005132 2.62966344 -14.95334575 2.74611215 -18 3 C-21.20476624 4.20744944 -21.20476624 4.20744944 -23 7 C-23.039992 8.99960012 -23.04346799 11.00047242 -23 13 C-21.52223801 13.75276393 -20.0426892 14.50202007 -18.5625 15.25 C-17.65242187 15.71019531 -16.74234375 16.17039063 -15.8046875 16.64453125 C-13.29524225 17.85731329 -10.77442949 18.90534127 -8.1875 19.9375 C-3.68868195 21.95558682 -1.48490439 23.67145687 1 28 C1.99014803 33.90243585 1.45470193 38.99663859 -2 44 C-7.47108482 49.18313299 -12.69398429 50.51676147 -20.06640625 50.38671875 C-24.850881 49.75600903 -29.18890798 47.97986619 -33 45 C-33.8984375 43.015625 -33.8984375 43.015625 -34 41 C-33.34 40.01 -32.68 39.02 -32 38 C-28.97365239 38.44505112 -26.88595271 39.0633596 -24.1875 40.5625 C-19.50472211 42.67434101 -15.65255272 42.34007086 -10.5625 41.6875 C-9.7890625 41.3471875 -9.7890625 41.3471875 -9 41 C-7.78118907 37.3435672 -7.5287771 34.83710078 -8 31 C-12.35765992 26.76684465 -18.30520273 25.33846948 -23.9765625 23.44140625 C-28.01031531 21.51833805 -30.02317984 18.95364031 -32 15 C-32.56735892 10.34951706 -32.4598631 6.90269423 -30.3125 2.6875 C-21.95110276 -7.0297995 -10.3499694 -7.12997892 0 0 Z " fill="#00A39D" transform="translate(764,216)"/>
<path d="M0 0 C2.32979998 1.19818285 3.17284246 1.77766929 4.2109375 4.203125 C4.375 6.25 4.375 6.25 2.375 9.25 C0.21996721 8.78820726 -1.48007072 8.33799278 -3.375 7.1875 C-7.78451183 5.3502034 -13.12676927 5.75058976 -17.625 7.25 C-18.47887105 10.55567489 -18.47887105 10.55567489 -18.625 14.25 C-15.25843611 18.8022175 -10.34999886 20.07394335 -5.20117188 21.78515625 C-0.12445766 23.6284567 2.32672559 25.75450746 5.375 30.25 C6.94062302 34.69847695 6.58492785 38.50907817 5.3125 43 C2.43765479 47.822321 -0.66802465 50.40581456 -5.8125 52.625 C-13.85564523 53.9435484 -20.38701318 53.13719507 -27.1640625 48.50390625 C-28.625 47.25 -28.625 47.25 -29.625 45.25 C-28.6875 43.125 -28.6875 43.125 -27.625 41.25 C-23.96094298 40.79199287 -21.91869737 41.52965299 -18.8125 43.3125 C-14.29083026 45.7274827 -11.5652551 45.50599706 -6.625 44.25 C-3.6772794 42.53842029 -3.59551891 41.14865876 -2.625 37.8125 C-2.20634639 34.18351339 -2.20634639 34.18351339 -4.6875 32.17578125 C-7.94291096 30.04158231 -10.90667542 29.00492191 -14.625 27.875 C-22.50762712 25.13177966 -22.50762712 25.13177966 -25 22.625 C-27.33351884 17.77846088 -27.36003685 13.53257256 -26.625 8.25 C-24.92606982 4.04738325 -22.3114981 1.83054867 -18.625 -0.75 C-12.54369867 -2.77710044 -5.85611055 -2.70037647 0 0 Z " fill="#00A39D" transform="translate(687.625,139.75)"/>
<path d="M0 0 C3.18321318 -0.47175325 5.82913539 -0.72611232 9 0 C11.76431851 2.52905736 13.2627706 5.71370459 15 9 C15.70992558 10.24110745 16.42509349 11.47922595 17.14453125 12.71484375 C19.1271989 16.12643377 21.07084848 19.55788447 23 23 C26.66551524 18.72783772 29.3967943 14.11017175 32.1875 9.25 C33.07552422 7.71279069 33.96478143 6.17629279 34.85546875 4.640625 C35.24371826 3.96547852 35.63196777 3.29033203 36.03198242 2.59472656 C37 1 37 1 38 0 C39.51928038 -0.07179964 41.04167482 -0.08392007 42.5625 -0.0625 C43.38878906 -0.05347656 44.21507812 -0.04445312 45.06640625 -0.03515625 C45.70449219 -0.02355469 46.34257813 -0.01195312 47 0 C45.67230559 3.56592125 44.08582909 6.68427081 42.06640625 9.90625 C41.49986328 10.81503906 40.93332031 11.72382813 40.34960938 12.66015625 C39.75986328 13.59730469 39.17011719 14.53445312 38.5625 15.5 C37.3969049 17.36443924 36.23153307 19.22901809 35.06640625 21.09375 C34.55021729 21.91552734 34.03402832 22.73730469 33.50219727 23.58398438 C33.00647217 24.38126953 32.51074707 25.17855469 32 26 C31.17846436 27.22529419 31.17846436 27.22529419 30.34033203 28.4753418 C28.84373814 31.29433586 28.58099102 33.13010714 28.48828125 36.30078125 C28.45283203 37.27724609 28.41738281 38.25371094 28.38085938 39.25976562 C28.35830078 40.26716797 28.33574219 41.27457031 28.3125 42.3125 C28.27833984 43.33923828 28.24417969 44.36597656 28.20898438 45.42382812 C28.12676591 47.94910963 28.05753064 50.4740554 28 53 C25.36 53 22.72 53 20 53 C20.09023438 51.75089844 20.18046875 50.50179687 20.2734375 49.21484375 C20.78556662 33.7003439 15.38303487 24.09806634 6.70898438 11.56054688 C4.22529829 7.83927549 2.08553223 3.95498488 0 0 Z " fill="#00A39D" transform="translate(696,139)"/>
<path d="M0 0 C2.64 0 5.28 0 8 0 C8 17.49 8 34.98 8 53 C5.36 53 2.72 53 0 53 C0 35.51 0 18.02 0 0 Z " fill="#00A39C" transform="translate(775,212)"/>
<path d="M0 0 C2.64 0 5.28 0 8 0 C8 17.49 8 34.98 8 53 C5.36 53 2.72 53 0 53 C0 35.51 0 18.02 0 0 Z " fill="#00A39C" transform="translate(436,212)"/>
<path d="M0 0 C2.64 0 5.28 0 8 0 C8 17.49 8 34.98 8 53 C5.36 53 2.72 53 0 53 C0 35.51 0 18.02 0 0 Z " fill="#00A29D" transform="translate(844,139)"/>
</svg>
