<?xml version="1.0" encoding="UTF-8"?>
<svg version="1.1" xmlns="http://www.w3.org/2000/svg" width="1280" height="433">
<path d="M0 0 C2.67460031 0.00855989 5.34709033 -0.02046659 8.02148438 -0.05200195 C28.70513706 -0.13785398 47.22272135 5.95545303 62.31054688 20.65307617 C84.17358065 43.66875289 88.87781686 72.973911 88.28192139 103.4382782 C87.75277029 122.16768481 83.33994399 140.55241091 78.04492188 158.44604492 C77.79403809 159.30439941 77.5431543 160.16275391 77.28466797 161.04711914 C70.34321673 184.3712881 59.7883923 206.12785168 47.45361328 227.03979492 C46.23004729 229.12982377 45.03851485 231.23165071 43.86914062 233.35229492 C38.4757647 243.08940426 32.33463964 252.27034085 26.04492188 261.44604492 C25.30169678 262.5358667 25.30169678 262.5358667 24.54345703 263.64770508 C17.64729704 273.72670814 10.28857255 283.30011786 2.49316406 292.69799805 C0.45130874 295.16254358 -1.56909919 297.64376148 -3.58007812 300.13354492 C-4.17046875 300.85928711 -4.76085937 301.5850293 -5.36914062 302.33276367 C-7.06249324 304.58917688 -8.50361241 307.02693539 -9.95507812 309.44604492 C11.16492188 309.44604492 32.28492188 309.44604492 54.04492188 309.44604492 C51.9922532 313.55138228 49.55352618 316.22651676 46.35766602 319.40795898 C45.77697861 319.99375732 45.1962912 320.57955566 44.5980072 321.18310547 C42.68050589 323.11448774 40.7556837 325.03836989 38.83007812 326.96166992 C37.49468736 328.30094719 36.15952094 329.64044819 34.8245697 330.98016357 C32.02780485 333.78438651 29.22719992 336.58470632 26.42407227 339.38256836 C22.82629637 342.97453695 19.24004059 346.57776909 15.65677738 350.18420792 C12.90397846 352.95170812 10.14431654 355.71228294 7.38259697 358.4708786 C6.05692966 359.7970605 4.73363507 361.1256185 3.41273689 362.4565506 C1.56940506 364.3121653 -0.28314444 366.15805439 -2.13842773 368.00170898 C-2.68554413 368.55646912 -3.23266052 369.11122925 -3.7963562 369.68280029 C-7.61249251 373.44604492 -7.61249251 373.44604492 -10.95507812 373.44604492 C-10.95507812 352.65604492 -10.95507812 331.86604492 -10.95507812 310.44604492 C-16.12180358 314.9669297 -21.00815579 319.42491285 -25.76757812 324.32104492 C-30.648854 329.27467945 -35.65793067 333.8011328 -41.12304688 338.11401367 C-44.47984415 340.8781626 -47.61319907 343.83081169 -50.76757812 346.82104492 C-57.49747627 353.15885655 -64.55201388 358.91518822 -71.95507812 364.44604492 C-72.78144775 365.06576172 -72.78144775 365.06576172 -73.62451172 365.69799805 C-128.68966558 406.70845787 -203.1713251 441.73930359 -273.51757812 432.32104492 C-289.42125636 429.93125182 -303.0383343 425.08392301 -315.95507812 415.44604492 C-316.79554688 414.81956055 -317.63601563 414.19307617 -318.50195312 413.54760742 C-334.27938966 400.65363343 -341.6984228 380.54181828 -343.76098633 360.79541016 C-345.90204307 334.87919755 -339.73667535 309.49518482 -332.83007812 284.69604492 C-332.60094727 283.8579126 -332.37181641 283.01978027 -332.13574219 282.15625 C-330.67273146 277.09433665 -328.74298374 272.92105222 -325.95507812 268.44604492 C-325.29507812 268.44604492 -324.63507813 268.44604492 -323.95507812 268.44604492 C-324.09925171 269.37163208 -324.09925171 269.37163208 -324.24633789 270.31591797 C-327.9316279 294.64692662 -329.68236659 320.04690153 -315.58398438 341.53588867 C-308.91560395 350.1688911 -297.66261402 354.77049364 -287.25976562 357.03198242 C-255.64066035 360.99371429 -226.72746146 349.87787026 -198.98046875 335.9440918 C-196.18377587 334.55928648 -193.36832463 333.23428375 -190.53320312 331.93041992 C-174.48260507 324.43429416 -160.095971 314.61724334 -145.57006836 304.56365967 C-144.10564299 303.55023968 -142.63889047 302.54018454 -141.171875 301.53051758 C-128.96338018 293.11346567 -117.15822601 284.28298527 -105.90161133 274.62158203 C-100.98015476 270.41385119 -95.88334144 266.46187953 -90.73242188 262.53979492 C-85.27684756 258.07152723 -80.15338476 253.21115933 -74.95507812 248.44604492 C-105.64507813 247.95104492 -105.64507813 247.95104492 -136.95507812 247.44604492 C-134.89970081 243.3352903 -132.45624946 240.66487136 -129.25195312 237.48413086 C-128.66965942 236.89833252 -128.08736572 236.31253418 -127.48742676 235.70898438 C-125.56497233 233.77774035 -123.63531001 231.85388829 -121.70507812 229.93041992 C-120.36721999 228.59121471 -119.02965888 227.25171271 -117.69238281 225.91192627 C-114.89126276 223.10785901 -112.08655997 220.30743828 -109.27929688 217.50952148 C-105.67420735 213.91584822 -102.07819914 210.31324242 -98.48480225 206.70788193 C-95.72613567 203.94200468 -92.96274355 201.18088853 -90.19787598 198.42121124 C-88.8694763 197.09414912 -87.54257002 195.76559039 -86.21716309 194.43553925 C-84.36896011 192.58228172 -82.51451047 190.73551568 -80.65820312 188.89038086 C-80.10749146 188.33562073 -79.55677979 187.7808606 -78.98937988 187.20928955 C-75.18360928 183.44604492 -75.18360928 183.44604492 -72.95507812 183.44604492 C-72.62507813 203.90604492 -72.29507812 224.36604492 -71.95507812 245.44604492 C-62.05630809 236.53715189 -53.463548 227.49773916 -45.15039062 217.15698242 C-43.75414043 215.43278734 -42.33448545 213.72709416 -40.88476562 212.04760742 C-29.29566836 198.49135711 -19.75829928 182.92814185 -10.95507812 167.44604492 C-10.59639648 166.82439453 -10.23771484 166.20274414 -9.86816406 165.56225586 C7.46704494 135.27527837 23.21623272 94.87814736 14.35742188 59.57104492 C10.48878417 46.29737986 4.15255768 38.12831435 -7.95507812 31.44604492 C-34.80784719 18.20358347 -70.31837244 27.87091436 -97.02880859 36.44458008 C-102.65647226 38.37055007 -108.16650695 40.59713304 -113.62548828 42.95678711 C-120.62175678 45.94103353 -120.62175678 45.94103353 -124.95507812 45.44604492 C-121.83998724 42.00184124 -118.42942196 39.77475522 -114.39257812 37.57104492 C-113.71203369 37.19592773 -113.03148926 36.82081055 -112.33032227 36.43432617 C-109.87800816 35.0933624 -107.41700071 33.76928351 -104.95507812 32.44604492 C-103.95863281 31.90560547 -102.9621875 31.36516602 -101.93554688 30.80834961 C-80.18597588 19.05911038 -58.11114513 9.09229699 -33.95507812 3.44604492 C-32.81232422 3.17751709 -31.66957031 2.90898926 -30.4921875 2.63232422 C-20.29320899 0.46728917 -10.41188006 -0.05068237 0 0 Z " fill="#3F4B94" transform="translate(621.955078125,-0.446044921875)"/>
<path d="M0 0 C0 20.46 0 40.92 0 62 C20.13 62 40.26 62 61 62 C56.85753424 66.83287672 52.79221551 71.40093436 48.3125 75.875 C47.70019531 76.48722412 47.08789062 77.09944824 46.45703125 77.73022461 C42.12788144 82.00582374 37.61015999 85.89723465 32.83203125 89.66796875 C29.47523397 92.43211768 26.34187905 95.38476677 23.1875 98.375 C16.45760185 104.71281163 9.40306424 110.4691433 2 116 C1.17363037 116.6197168 1.17363037 116.6197168 0.33056641 117.25195312 C-54.73458745 158.26241295 -129.21624698 193.29325867 -199.5625 183.875 C-215.46617824 181.48520689 -229.08325617 176.63787809 -242 167 C-242.84046875 166.37351562 -243.6809375 165.74703125 -244.546875 165.1015625 C-260.32431153 152.20758851 -267.74334467 132.09577336 -269.8059082 112.34936523 C-271.94696494 86.43315263 -265.78159722 61.0491399 -258.875 36.25 C-258.64586914 35.41186768 -258.41673828 34.57373535 -258.18066406 33.71020508 C-256.71765334 28.64829173 -254.78790561 24.4750073 -252 20 C-251.34 20 -250.68 20 -250 20 C-250.14417358 20.92558716 -250.14417358 20.92558716 -250.29125977 21.86987305 C-253.97654977 46.2008817 -255.72728847 71.60085661 -241.62890625 93.08984375 C-234.96052582 101.72284618 -223.7075359 106.32444872 -213.3046875 108.5859375 C-181.68558223 112.54766937 -152.77238333 101.43182534 -125.02539062 87.49804688 C-122.22869775 86.11324156 -119.41324651 84.78823883 -116.578125 83.484375 C-100.52752694 75.98824924 -86.14089287 66.17119842 -71.61499023 56.11761475 C-70.15056486 55.10419475 -68.68381234 54.09413962 -67.21679688 53.08447266 C-55.00830206 44.66742075 -43.20314789 35.83694035 -31.9465332 26.17553711 C-28.03218869 22.82886364 -24.01452059 19.64548248 -19.9375 16.5 C-14.58883259 12.36863612 -9.55303931 7.99458046 -4.64233398 3.3515625 C-1.08989888 0 -1.08989888 0 0 0 Z " fill="#3F4B94" transform="translate(548,248)"/>
<path d="M0 0 C82.56809339 0 82.56809339 0 94.3671875 10.0078125 C101.01695379 16.8037275 104.10823289 24.53637569 104.5 34 C104.12744333 43.27786296 101.11735811 50.51184912 94.87890625 57.34375 C92.7380591 59.23090009 90.48286827 60.60312042 88 62 C88.71285156 62.3403125 89.42570312 62.680625 90.16015625 63.03125 C99.28638889 67.6496396 105.45674201 73.01646153 109.28125 82.66015625 C112.33346323 92.59643736 111.13079124 103.03988338 106.6875 112.375 C102.43517495 120.090813 97.58229175 124.62560091 90 129 C61.98504956 136.64044103 27.67113262 133 0 133 C0 89.11 0 45.22 0 0 Z M27 23 C27 32.9 27 42.8 27 53 C31.516875 53.04125 36.03375 53.0825 40.6875 53.125 C42.08315186 53.14320801 43.47880371 53.16141602 44.91674805 53.18017578 C61.09193812 53.68146145 61.09193812 53.68146145 74.828125 46.53515625 C77.81998027 42.61582584 77.44577357 37.6806225 77 33 C75.16302763 28.40756907 72.30828871 26.31984777 68 24 C62.9505335 23.04673912 58.00099644 22.86498177 52.87890625 22.90234375 C52.13414536 22.9037587 51.38938446 22.90517365 50.62205505 22.90663147 C48.26882727 22.91218011 45.9156985 22.92472267 43.5625 22.9375 C41.95638159 22.94252165 40.35026168 22.94708339 38.74414062 22.95117188 C34.82935926 22.96127714 30.91478903 22.98086198 27 23 Z M27 75 C27 86.55 27 98.1 27 110 C33.744375 110.0309375 33.744375 110.0309375 40.625 110.0625 C42.70482178 110.07615601 42.70482178 110.07615601 44.82666016 110.09008789 C62.30743948 111.13271327 62.30743948 111.13271327 77.64453125 104.5 C81.87963341 99.06093903 82.78563462 94.74523438 82 88 C80.58230987 83.61882509 78.38796765 80.96012812 74.4375 78.625 C60.76759717 72.16286411 41.58384048 74.92780277 27 75 Z " fill="#2D232C" transform="translate(0,112)"/>
<path d="M0 0 C8.58 0 17.16 0 26 0 C33.86771897 11.23959852 33.86771897 11.23959852 36.5078125 15.70703125 C37.3886853 17.18840576 37.3886853 17.18840576 38.28735352 18.69970703 C38.89377686 19.72692871 39.5002002 20.75415039 40.125 21.8125 C44.87290576 29.7914313 49.65688982 37.74195697 54.5625 45.625 C59.29016045 53.2258608 63.97369326 60.85214935 68.625 68.5 C69.51360718 69.96107178 69.51360718 69.96107178 70.42016602 71.45166016 C72.95787858 75.62799735 75.48568575 79.80947624 78 84 C78.33 56.28 78.66 28.56 79 0 C87.58 0 96.16 0 105 0 C105 43.89 105 87.78 105 133 C77 133 77 133 71.29296875 128.15625 C69.61279297 124.97583008 69.61279297 124.97583008 68.1875 121.5 C67.27727785 119.70597992 66.36689879 117.91201272 65.44592285 116.12348938 C64.51938497 114.29267971 63.64151537 112.4440329 62.76806641 110.58740234 C60.0452577 105.06283025 56.72072495 99.97470837 53.375 94.8125 C52.1404058 92.85154962 50.90992 90.88800652 49.68359375 88.921875 C49.0788623 87.95314453 48.47413086 86.98441406 47.85107422 85.98632812 C44.10058251 79.93567994 40.41488739 73.84514527 36.74169922 67.74731445 C36.20689941 66.86261475 35.67209961 65.97791504 35.12109375 65.06640625 C34.43164673 63.9208728 34.43164673 63.9208728 33.72827148 62.75219727 C31.23491106 58.78162909 28.60072522 54.90108782 26 51 C25.67 78.06 25.34 105.12 25 133 C16.75 133 8.5 133 0 133 C0 89.11 0 45.22 0 0 Z " fill="#2D232C" transform="translate(735,112)"/>
<path d="M0 0 C3.22284767 2.46536085 6.15680304 5.10766136 9 8 C9.33 4.7 9.66 1.4 10 -2 C18.25 -2 26.5 -2 35 -2 C35.04532944 10.42270723 35.08196128 22.84535881 35.10362434 35.2681303 C35.11402572 41.03759034 35.12811781 46.80699045 35.15087891 52.57641602 C35.17273795 58.152597 35.184596 63.72872063 35.18975449 69.30494118 C35.19342692 71.42380487 35.20059773 73.54266571 35.21146011 75.66150475 C35.38616451 111.17817737 35.38616451 111.17817737 24.01953125 123.21484375 C13.87689624 132.18038379 -1.53526246 133.5637118 -14.5546875 133.22265625 C-26.72993156 132.43582075 -39.79428332 130.85345711 -49 122 C-54.69609854 114.95562281 -56.11851274 107.97464652 -56 99 C-51.5619104 99.47380629 -47.12464754 99.9549574 -42.6875 100.4375 C-40.79354492 100.63956055 -40.79354492 100.63956055 -38.86132812 100.84570312 C-37.04858398 101.04389648 -37.04858398 101.04389648 -35.19921875 101.24609375 C-34.08377686 101.36654053 -32.96833496 101.4869873 -31.8190918 101.61108398 C-29 102 -29 102 -26 103 C-25.525625 103.969375 -25.05125 104.93875 -24.5625 105.9375 C-22.82587432 109.34128634 -22.47797599 109.79521093 -19 111 C-16.34822357 111.21884972 -13.83641477 111.32472952 -11.1875 111.3125 C-10.50107422 111.32861328 -9.81464844 111.34472656 -9.10742188 111.36132812 C-4.03662729 111.36612547 -0.50103551 110.36092051 4 108 C8.46070449 102.34977431 8.1372653 96.04865387 8.0625 89.1875 C8.05798828 88.39923828 8.05347656 87.61097656 8.04882812 86.79882812 C8.03711312 84.86585239 8.01917998 82.93291607 8 81 C7.43925781 81.75925781 6.87851563 82.51851563 6.30078125 83.30078125 C1.50713199 88.92457011 -5.74221039 92.76986617 -13 94 C-23.86190709 94.78605907 -33.44146363 93.88385422 -42.05859375 86.78125 C-53.43216824 76.34593819 -58.32508346 64.58204985 -59.21875 49.24609375 C-59.72698877 33.48877393 -56.81932856 17.99476853 -45.8125 6.0625 C-33.87122286 -5.08943848 -14.4275864 -8.14207977 0 0 Z M-26.8125 22.625 C-33.05938292 31.15115101 -32.74728935 41.91671216 -32 52 C-30.71999132 59.63043933 -27.71775903 65.8133494 -21.8125 70.875 C-15.90052184 73.23979127 -10.25448033 73.86324986 -4.25 71.5 C1.58054238 68.48171569 5.349254 64.17041983 7.875 58.125 C10.88406171 47.6022932 10.33567004 34.63192383 5 25 C1.40692061 20.57774845 -2.6009887 17.79967043 -8 16 C-15.91374665 15.3293435 -20.99066621 17.19128847 -26.8125 22.625 Z " fill="#2D232C" transform="translate(1022,150)"/>
<path d="M0 0 C0 20.79 0 41.58 0 63 C20.79 63 41.58 63 63 63 C63 83.79 63 104.58 63 126 C84.12 126 105.24 126 127 126 C124.94733132 130.10533735 122.50860431 132.78047184 119.31274414 135.96191406 C118.73205673 136.5477124 118.15136932 137.13351074 117.55308533 137.73706055 C115.63558401 139.66844282 113.71076183 141.59232496 111.78515625 143.515625 C110.44976548 144.85490227 109.11459906 146.19440327 107.77964783 147.53411865 C104.98288297 150.33834159 102.18227804 153.1386614 99.37915039 155.93652344 C95.7813745 159.52849203 92.19511871 163.13172417 88.61185551 166.73816299 C85.85905658 169.5056632 83.09939467 172.26623802 80.33767509 175.02483368 C79.01200778 176.35101558 77.6887132 177.67957358 76.36781502 179.01050568 C74.52448318 180.86612038 72.67193369 182.71200947 70.81665039 184.55566406 C69.9959758 185.38780426 69.9959758 185.38780426 69.15872192 186.23675537 C65.34258562 190 65.34258562 190 62 190 C62 169.21 62 148.42 62 127 C41.21 127 20.42 127 -1 127 C-1 106.21 -1 85.42 -1 64 C-21.79 64 -42.58 64 -64 64 C-61.94462269 59.88924537 -59.50117133 57.21882644 -56.296875 54.03808594 C-55.42343445 53.15938843 -55.42343445 53.15938843 -54.53234863 52.26293945 C-52.6098942 50.33169543 -50.68023189 48.40784337 -48.75 46.484375 C-47.41214187 45.14516979 -46.07458076 43.80566779 -44.73730469 42.46588135 C-41.93618463 39.66181409 -39.13148185 36.86139336 -36.32421875 34.06347656 C-32.71912923 30.46980329 -29.12312101 26.86719749 -25.52972412 23.26183701 C-22.77105754 20.49595976 -20.00766543 17.73484361 -17.24279785 14.97516632 C-15.91439817 13.64810419 -14.58749189 12.31954547 -13.26208496 10.98949432 C-11.41388198 9.1362368 -9.55943234 7.28947076 -7.703125 5.44433594 C-7.15241333 4.88957581 -6.60170166 4.33481567 -6.03430176 3.76324463 C-2.22853116 0 -2.22853116 0 0 0 Z " fill="#F7C80B" transform="translate(549,183)"/>
<path d="M0 0 C8.58 0 17.16 0 26 0 C26.33 22.11 26.66 44.22 27 67 C32.92559268 61.08143804 32.92559268 61.08143804 38.25 54.8125 C39.34090942 53.49137207 39.34090942 53.49137207 40.45385742 52.14355469 C42.1520983 50.08203505 43.70637421 48.01293319 45.26586914 45.83374023 C52.15895674 36.99527166 52.15895674 36.99527166 57.98291016 36.0324707 C62.40462235 35.67941455 66.77081523 35.94635591 71.1875 36.25 C72.72700285 36.31032814 74.26673575 36.36505736 75.80664062 36.4140625 C79.54262018 36.54497747 83.26979757 36.75117097 87 37 C82.55831588 42.27061428 77.93346898 47.31564279 73.1875 52.3125 C71.77560064 53.81208489 70.36414012 55.31208307 68.953125 56.8125 C66.62421802 59.28571485 64.28382352 61.74586361 61.921875 64.1875 C61.10203125 65.05375 60.2821875 65.92 59.4375 66.8125 C58.73496094 67.54082031 58.03242188 68.26914063 57.30859375 69.01953125 C55.77764043 70.86228418 55.77764043 70.86228418 56.25146484 72.81030273 C57.13790419 75.4034125 58.32221189 77.62679092 59.66796875 80.015625 C60.50352295 81.50473389 60.50352295 81.50473389 61.35595703 83.02392578 C61.96036621 84.08853027 62.56477539 85.15313477 63.1875 86.25 C64.11731689 87.89911377 64.11731689 87.89911377 65.06591797 89.58154297 C70.63226638 99.42257769 76.31586163 109.19473635 82.0390625 118.9453125 C82.54856445 119.81575195 83.05806641 120.68619141 83.58300781 121.58300781 C84.47885445 123.1110715 85.37873079 124.63678614 86.28417969 126.15917969 C89 130.77916849 89 130.77916849 89 133 C65.2881425 135.65252101 65.2881425 135.65252101 58.90185547 131.70214844 C55.51658621 127.98969047 53.89055252 123.39584701 52.14599609 118.74902344 C49.92178583 113.41357231 46.80340875 108.53467372 43.875 103.5625 C42.7396711 101.58905941 41.61146033 99.61149744 40.4921875 97.62890625 C40.01120605 96.78400635 39.53022461 95.93910645 39.03466797 95.06860352 C38 93 38 93 38 91 C36.82352718 92.17647282 35.65167829 93.35783826 34.5 94.55859375 C33 96 33 96 29.875 98.1875 C25.65861191 102.40388809 26.18204396 107.92985129 26.1171875 113.546875 C26.11915304 114.98958434 26.12176523 116.43229294 26.125 117.875 C26.106859 119.34118162 26.08605188 120.80733282 26.0625 122.2734375 C26.00585287 125.85029898 26.00425545 129.42116931 26 133 C17.42 133 8.84 133 0 133 C0 89.11 0 45.22 0 0 Z " fill="#2D232C" transform="translate(345,112)"/>
<path d="M0 0 C6.87420515 7.94525694 6.28211256 19.91523499 6.2734375 29.76953125 C6.29372664 32.22982226 6.31457743 34.69010868 6.3359375 37.15039062 C6.35848777 40.9812408 6.3749991 44.81190883 6.38085938 48.64282227 C6.39045377 52.37288324 6.42430886 56.10215077 6.4609375 59.83203125 C6.45336929 61.52172783 6.45336929 61.52172783 6.44564819 63.24555969 C6.53356746 70.45704236 7.77235455 76.51060639 10.14395142 83.32621765 C11 86 11 86 11 89 C2.42 89 -6.16 89 -15 89 C-15.99 86.03 -16.98 83.06 -18 80 C-18.57105469 80.45890625 -19.14210938 80.9178125 -19.73046875 81.390625 C-29.73642009 88.96269628 -40.44625801 92.34805283 -53 91 C-61.0667169 89.77412172 -67.31734216 86.94510991 -73 81 C-78.45992985 73.25421434 -79.67409181 66.36097305 -79 57 C-77.75118758 49.85083533 -74.37537729 44.78754148 -69 40 C-61.34513221 35.01417946 -52.74660891 33.21819703 -43.9375 31.3125 C-42.61366458 31.01616741 -41.29009451 30.71864681 -39.96679688 30.41992188 C-36.31378026 29.60098364 -32.65758585 28.79823878 -29 28 C-27.18859919 27.59857069 -25.37736495 27.19638787 -23.56640625 26.79296875 C-22.38949219 26.53128906 -21.21257813 26.26960938 -20 26 C-20.25620684 24.3934324 -20.53055871 22.7897517 -20.8125 21.1875 C-20.96332031 20.29417969 -21.11414063 19.40085938 -21.26953125 18.48046875 C-22.06963708 15.76353184 -22.77502384 14.70779042 -25 13 C-28.56440418 11.81186527 -31.55474782 11.75812047 -35.3125 11.6875 C-36.60800781 11.65011719 -37.90351562 11.61273438 -39.23828125 11.57421875 C-43.69337524 12.07848173 -45.66472738 13.02087482 -49 16 C-49.99 18.31 -50.98 20.62 -52 23 C-63.88 21.02 -63.88 21.02 -76 19 C-74.64469995 9.51289963 -70.84250404 2.54908724 -63.328125 -3.53125 C-46.35269213 -14.24058349 -15.27253333 -13.24244199 0 0 Z M-32.1875 45.75 C-33.75081055 46.12898438 -33.75081055 46.12898438 -35.34570312 46.515625 C-42.12402431 48.23929218 -47.32714943 49.80982351 -51.9375 55.3125 C-53.40702425 59.02953192 -53.09309727 61.17415957 -52 65 C-48.17363377 69.65368865 -45.30504691 71.72180468 -39.375 72.4375 C-33.52283496 72.27311334 -27.56528188 69.69320932 -23.51171875 65.4375 C-20.12765123 60.51521996 -19.86748388 56.08075073 -19.9375 50.3125 C-19.94201172 49.61060547 -19.94652344 48.90871094 -19.95117188 48.18554688 C-19.96293073 46.45699462 -19.98086546 44.72848635 -20 43 C-23.98118659 43 -28.35010609 44.78074932 -32.1875 45.75 Z " fill="#2D232C" transform="translate(939,156)"/>
<path d="M0 0 C6.83377324 7.89852545 6.28980719 19.81597064 6.30859375 29.62109375 C6.33374711 32.04492435 6.35914523 34.46875242 6.38476562 36.89257812 C6.41348227 40.66869483 6.43753611 44.44476783 6.45629883 48.22094727 C6.4780743 51.89621698 6.5175103 55.5709963 6.55859375 59.24609375 C6.55876747 60.91846352 6.55876747 60.91846352 6.5589447 62.62461853 C6.63769655 68.93026603 7.36790149 74.43151481 9.26161194 80.45619202 C10.07177651 83.247276 10.52220901 86.13325407 11 89 C2.75 89 -5.5 89 -14 89 C-15.32 86.03 -16.64 83.06 -18 80 C-18.57105469 80.45890625 -19.14210937 80.9178125 -19.73046875 81.390625 C-29.3479688 88.66873315 -39.88589184 92.37465057 -52 91 C-60.46876092 89.77927771 -67.05701267 87.31974113 -73 81 C-78.38053509 73.46467028 -79.72273692 66.13648553 -79 57 C-77.71433216 49.85215861 -74.38269508 44.79467474 -69 40 C-61.34513221 35.01417946 -52.74660891 33.21819703 -43.9375 31.3125 C-42.61366458 31.01616741 -41.29009451 30.71864681 -39.96679688 30.41992188 C-36.31378026 29.60098364 -32.65758585 28.79823878 -29 28 C-27.18859919 27.59857069 -25.37736495 27.19638787 -23.56640625 26.79296875 C-22.38949219 26.53128906 -21.21257812 26.26960938 -20 26 C-20.25620684 24.3934324 -20.53055871 22.7897517 -20.8125 21.1875 C-20.96332031 20.29417969 -21.11414063 19.40085938 -21.26953125 18.48046875 C-22.06963708 15.76353184 -22.77502384 14.70779042 -25 13 C-28.59001609 11.80332797 -31.5904839 11.79461119 -35.375 11.75 C-36.68210938 11.72421875 -37.98921875 11.6984375 -39.3359375 11.671875 C-43.32598115 12.02919234 -44.99653177 12.37841605 -48 15 C-49.32 17.64 -50.64 20.28 -52 23 C-63.88 21.02 -63.88 21.02 -76 19 C-74.65363605 9.57545234 -70.8621633 2.53123992 -63.3984375 -3.53125 C-46.27193462 -14.01914102 -15.31885311 -13.28260474 0 0 Z M-32.1875 45.75 C-33.75081055 46.12898438 -33.75081055 46.12898438 -35.34570312 46.515625 C-42.12402431 48.23929218 -47.32714943 49.80982351 -51.9375 55.3125 C-53.40702425 59.02953192 -53.09309727 61.17415957 -52 65 C-48.17363377 69.65368865 -45.30504691 71.72180468 -39.375 72.4375 C-33.52283496 72.27311334 -27.56528188 69.69320932 -23.51171875 65.4375 C-20.12765123 60.51521996 -19.86748388 56.08075073 -19.9375 50.3125 C-19.94201172 49.61060547 -19.94652344 48.90871094 -19.95117188 48.18554688 C-19.96293073 46.45699462 -19.98086546 44.72848635 -20 43 C-23.98118659 43 -28.35010609 44.78074932 -32.1875 45.75 Z " fill="#2D232C" transform="translate(204,156)"/>
<path d="M0 0 C6.92875135 7.8170528 6.28213288 18.8921508 6.2734375 28.76953125 C6.29372664 31.22982226 6.31457743 33.69010868 6.3359375 36.15039062 C6.35848777 39.9812408 6.3749991 43.81190883 6.38085938 47.64282227 C6.39045377 51.37288324 6.42430886 55.10215077 6.4609375 58.83203125 C6.45336929 60.52172783 6.45336929 60.52172783 6.44564819 62.24555969 C6.54544511 70.43129415 8.34756216 77.29209254 11 85 C11.33 86.32 11.66 87.64 12 89 C3.42 89 -5.16 89 -14 89 C-15.32 86.03 -16.64 83.06 -18 80 C-18.57105469 80.45890625 -19.14210938 80.9178125 -19.73046875 81.390625 C-30.36262696 89.43658257 -41.1772357 92.16022934 -54.33203125 90.75 C-61.45424927 89.5525693 -68.08695516 86.30345291 -72.89453125 80.8515625 C-77.85729738 73.77569643 -79.93712673 66.60714862 -79 58 C-77.16650586 49.9031828 -73.55233811 43.26749575 -66.671875 38.43359375 C-60.55405118 35.15107717 -53.69615756 33.67283505 -47 32 C-45.94683594 31.73622559 -44.89367188 31.47245117 -43.80859375 31.20068359 C-22.87366407 26 -22.87366407 26 -20 26 C-20.25620684 24.3934324 -20.53055871 22.7897517 -20.8125 21.1875 C-20.96332031 20.29417969 -21.11414062 19.40085938 -21.26953125 18.48046875 C-22.06963708 15.76353184 -22.77502384 14.70779042 -25 13 C-28.42991538 11.85669487 -31.1986416 11.79618349 -34.8125 11.75 C-36.01519531 11.72421875 -37.21789063 11.6984375 -38.45703125 11.671875 C-42.51189379 12.04740802 -44.67086993 12.64128581 -48 15 C-49.32 17.64 -50.64 20.28 -52 23 C-63.88 21.02 -63.88 21.02 -76 19 C-74.49824651 9.98947906 -71.4117817 3.20261565 -64.1484375 -2.53515625 C-46.87806973 -14.31040701 -16.11186173 -13.41007715 0 0 Z M-33.875 46.25 C-34.76058594 46.45496094 -35.64617187 46.65992188 -36.55859375 46.87109375 C-42.91867122 48.43504723 -47.55402968 50.2482834 -52 55.25 C-53.45673764 59.25602852 -52.72787052 62.16459235 -51 66 C-47.39297766 70.34692436 -45.06327911 71.78281273 -39.4375 72.375 C-32.82932013 72.28949675 -26.97305827 69.02118165 -22.4375 64.375 C-19.81483564 60.04190237 -19.877951 56.2184218 -19.9375 51.3125 C-19.94201172 50.61060547 -19.94652344 49.90871094 -19.95117188 49.18554688 C-19.96293073 47.45699462 -19.98086546 45.72848635 -20 44 C-24.89878159 44 -29.1406963 45.08179519 -33.875 46.25 Z " fill="#2D232C" transform="translate(1153,156)"/>
<path d="M0 0 C7.22725193 7.43374484 9.44954629 15.73248463 9.41455078 25.95117188 C9.41484283 26.67410431 9.41513489 27.39703674 9.41543579 28.14187622 C9.4140567 30.50096179 9.39856362 32.85972049 9.3828125 35.21875 C9.3790773 36.86641263 9.37623272 38.51407751 9.37423706 40.16174316 C9.36664052 44.47552744 9.34702669 48.78917472 9.3248291 53.10290527 C9.30428448 57.51389717 9.295217 61.92491144 9.28515625 66.3359375 C9.26377662 74.97402787 9.2286274 83.61198105 9.1875 92.25 C0.6075 92.25 -7.9725 92.25 -16.8125 92.25 C-16.82708252 90.35838135 -16.84166504 88.4667627 -16.85668945 86.51782227 C-16.90851955 80.23926104 -16.97385271 73.96095141 -17.04821491 67.68261814 C-17.09277507 63.87933571 -17.13206183 60.07615686 -17.15893555 56.27270508 C-17.18511308 52.59610051 -17.22561483 48.91989765 -17.27568626 45.24354362 C-17.29225805 43.84711678 -17.30383225 42.45062061 -17.31011391 41.05410957 C-17.13098133 27.81568781 -17.13098133 27.81568781 -23.3125 16.6875 C-28.91317574 14.38722246 -34.39958025 14.0177145 -40.16015625 16.09765625 C-45.33706983 18.95221607 -47.95083596 22.69656151 -49.8125 28.25 C-50.68399994 31.95520988 -50.96082586 35.43116781 -51.01782227 39.23364258 C-51.03776749 40.41448929 -51.05771271 41.595336 -51.07826233 42.81196594 C-51.09497482 44.07671249 -51.11168732 45.34145905 -51.12890625 46.64453125 C-51.14968735 47.94702316 -51.17046844 49.24951508 -51.19187927 50.59147644 C-51.24688184 54.04209263 -51.29638659 57.49276635 -51.34472656 60.94348145 C-51.39510164 64.46953397 -51.45065363 67.99550472 -51.50585938 71.52148438 C-51.6136605 78.43092629 -51.71285274 85.34041641 -51.8125 92.25 C-60.3925 92.25 -68.9725 92.25 -77.8125 92.25 C-77.8125 60.57 -77.8125 28.89 -77.8125 -3.75 C-69.8925 -3.75 -61.9725 -3.75 -53.8125 -3.75 C-53.4825 -0.12 -53.1525 3.51 -52.8125 7.25 C-51.86375 6.198125 -50.915 5.14625 -49.9375 4.0625 C-36.46999223 -9.29683502 -15.64043373 -9.73182543 0 0 Z " fill="#2D232C" transform="translate(311.8125,152.75)"/>
<path d="M0 0 C1.09441406 0.15984375 2.18882813 0.3196875 3.31640625 0.484375 C6.51564634 1.26916982 8.72512432 2.41144367 11.4375 4.25 C10.86139687 9.79955043 9.41651452 14.51029497 7.375 19.6875 C6.95250977 20.78481445 6.95250977 20.78481445 6.52148438 21.90429688 C5.83336753 23.68873546 5.13635394 25.46973905 4.4375 27.25 C3.86902344 27.0334375 3.30054688 26.816875 2.71484375 26.59375 C-3.44007826 24.37427896 -8.31499471 23.23117481 -14.75 25.25 C-19.38838275 28.54840551 -20.9227435 32.38281485 -22.14892578 37.87817383 C-24.06430697 50.06529399 -24.01697113 62.31494704 -24.1875 74.625 C-24.22575986 76.92188851 -24.26481598 79.2187639 -24.3046875 81.515625 C-24.40127711 87.09367475 -24.48153032 92.67161517 -24.5625 98.25 C-33.1425 98.25 -41.7225 98.25 -50.5625 98.25 C-50.5625 66.57 -50.5625 34.89 -50.5625 2.25 C-42.6425 2.25 -34.7225 2.25 -26.5625 2.25 C-26.2325 5.55 -25.9025 8.85 -25.5625 12.25 C-24.716875 11.0125 -23.87125 9.775 -23 8.5 C-19.34110012 3.63581545 -15.81443679 0.996272 -9.75390625 -0.39453125 C-6.29916356 -0.77933123 -3.43055509 -0.53463196 0 0 Z " fill="#2D232C" transform="translate(1232.5625,146.75)"/>
<path d="M0 0 C8.58 0 17.16 0 26 0 C26 31.68 26 63.36 26 96 C17.42 96 8.84 96 0 96 C0 64.32 0 32.64 0 0 Z " fill="#2D242C" transform="translate(1254,149)"/>
<path d="M0 0 C1.70209877 0.00333092 1.70209877 0.00333092 3.43858337 0.00672913 C4.71983597 0.00680466 6.00108856 0.00688019 7.32116699 0.00695801 C8.73001646 0.01206542 10.13886554 0.01728143 11.54771423 0.02259827 C12.98118033 0.02446249 14.41464706 0.02588637 15.84811401 0.02688599 C19.62765755 0.03071079 23.40716288 0.04054075 27.18669128 0.05158997 C31.04075097 0.06180489 34.8948168 0.06638378 38.74888611 0.07142639 C46.31596085 0.08216306 53.88300407 0.09923903 61.45005798 0.12025452 C59.81833064 4.240114 56.84383162 7.01503898 53.76280212 10.08216858 C53.18211472 10.66796692 52.60142731 11.25376526 52.00314331 11.85731506 C50.085642 13.78869734 48.16081981 15.71257948 46.23521423 17.63587952 C44.89982347 18.97515679 43.56465704 20.31465778 42.22970581 21.65437317 C39.43294096 24.4585961 36.63233603 27.25891591 33.82920837 30.05677795 C30.23143248 33.64874654 26.64517669 37.25197869 23.06191349 40.85841751 C20.30911457 43.62591772 17.54945265 46.38649254 14.78773308 49.1450882 C13.46206577 50.4712701 12.13877118 51.79982809 10.817873 53.13076019 C8.97454117 54.9863749 7.12199167 56.83226398 5.26670837 58.67591858 C4.71959198 59.23067871 4.17247559 59.78543884 3.60877991 60.35700989 C-0.2073564 64.12025452 -0.2073564 64.12025452 -3.54994202 64.12025452 C-3.57306912 55.92334891 -3.59085897 47.72645684 -3.60175419 39.52952671 C-3.60698222 35.72373875 -3.6140784 31.91797303 -3.62538147 28.11219788 C-3.63621322 24.44232908 -3.64221946 20.77248174 -3.64481926 17.10259819 C-3.64667299 15.69950459 -3.65029262 14.29641222 -3.65567207 12.89332771 C-3.66288621 10.93455771 -3.6633501 8.97576631 -3.66346741 7.01698303 C-3.66568802 5.90001541 -3.66790863 4.78304779 -3.67019653 3.63223267 C-3.50708055 0.22492782 -3.41066984 0.16084619 0 0 Z " fill="#231E1F" transform="translate(614.5499420166016,308.87974548339844)"/>
<path d="M0 0 C0.0231271 8.19690561 0.04091696 16.39379768 0.05181217 24.59072781 C0.0570402 28.39651577 0.06413638 32.20228148 0.07543945 36.00805664 C0.0862712 39.67792544 0.09227744 43.34777278 0.09487724 47.01765633 C0.09673097 48.42074992 0.1003506 49.82384229 0.10573006 51.2269268 C0.11294419 53.1856968 0.11340809 55.1444882 0.11352539 57.10327148 C0.115746 58.22023911 0.11796661 59.33720673 0.12025452 60.48802185 C0 63 0 63 -1 64 C-2.96369153 64.0940067 -4.93079199 64.11743381 -6.89672852 64.11352539 C-8.15796036 64.11344986 -9.4191922 64.11337433 -10.71864319 64.11329651 C-12.10539794 64.1081891 -13.49215229 64.10297309 -14.87890625 64.09765625 C-16.28995209 64.09579201 -17.70099857 64.09436814 -19.11204529 64.09336853 C-22.83240535 64.08954379 -26.5527266 64.0797139 -30.27307129 64.06866455 C-34.06680781 64.05844948 -37.86055058 64.05387071 -41.65429688 64.04882812 C-49.10288231 64.03809158 -56.55143572 64.0210157 -64 64 C-62.36862306 59.87467721 -59.38511914 57.10362738 -56.296875 54.03808594 C-55.42343445 53.15938843 -55.42343445 53.15938843 -54.53234863 52.26293945 C-52.6098942 50.33169543 -50.68023189 48.40784337 -48.75 46.484375 C-47.41214187 45.14516979 -46.07458076 43.80566779 -44.73730469 42.46588135 C-41.93618463 39.66181409 -39.13148185 36.86139336 -36.32421875 34.06347656 C-32.71912923 30.46980329 -29.12312101 26.86719749 -25.52972412 23.26183701 C-22.77105754 20.49595976 -20.00766543 17.73484361 -17.24279785 14.97516632 C-15.91439817 13.64810419 -14.58749189 12.31954547 -13.26208496 10.98949432 C-11.41388198 9.1362368 -9.55943234 7.28947076 -7.703125 5.44433594 C-7.15241333 4.88957581 -6.60170166 4.33481567 -6.03430176 3.76324463 C-2.22853116 0 -2.22853116 0 0 0 Z " fill="#DE1E26" transform="translate(549,183)"/>
<path d="M0 0 C8.58 0 17.16 0 26 0 C26 8.25 26 16.5 26 25 C17.42 25 8.84 25 0 25 C0 16.75 0 8.5 0 0 Z " fill="#2D242C" transform="translate(1254,112)"/>
</svg>
